<svg xmlns="http://www.w3.org/2000/svg" xmlns:xlink="http://www.w3.org/1999/xlink" style="isolation:isolate" viewBox="0 0 700 700" width="700" height="700"><defs><clipPath id="_clipPath_9JlS9N18vvAH9g5YWUJhjmVwzNfIADNS"><rect width="700" height="700"/></clipPath></defs><g clip-path="url(#_clipPath_9JlS9N18vvAH9g5YWUJhjmVwzNfIADNS)"><path d=" M 328.5 6 C 298.8 12.4 276.3 25.9 259 47.9 C 246.3 64.1 239.4 79.2 234.9 100.5 C 233.8 105.9 233.9 329.3 235 335 C 236.6 343.4 239.1 352.5 240.1 353.5 C 240.6 354 241 355.1 241 356 C 241 357.4 247.6 371.2 251 377 C 256.2 385.6 269.6 400.2 279.5 407.9 C 289.7 415.7 307.7 424.8 317 426.7 C 318.4 426.9 321.8 427.9 324.5 428.8 C 331 431 371.1 431.3 374.7 429.2 C 376 428.5 378.9 427.5 381.2 427 C 392.9 424.6 409.6 416.2 421.7 406.8 C 440.7 391.9 457.9 366.2 462 346.2 C 462.5 343.9 463.5 341 464.2 339.7 C 465.9 336.9 466.7 110.5 465.1 101.9 C 462.4 87.2 459.6 78.9 453.5 67.3 C 448.7 58.1 448.3 57.5 442.1 49.5 C 430.3 34.4 417.5 23.9 401 16 C 388.5 9.9 385.4 8.9 371.3 6.1 C 358.7 3.5 340.2 3.5 328.5 6 Z  M 375.9 22.9 C 379.4 24.1 382.7 25 383.2 25 C 383.7 25 388.4 27 393.5 29.5 C 403.8 34.5 418.3 45.2 424.7 52.4 C 432.9 61.7 442.8 78.3 444.6 85.6 C 445 87.2 445.6 89 446.1 89.5 C 446.5 90.1 447.8 95.1 448.9 100.7 C 450.9 110.5 451 113.6 451 217.7 C 451 321.2 450.9 325 449 334.1 C 446.1 347.6 442.1 358.1 436.9 365.8 C 435.3 368.2 434 370.4 434 370.7 C 434 372 423.5 384.2 418.2 389.2 C 399.8 406.1 374.8 416 350 416 C 323.1 416 296.1 404.4 277.5 384.8 C 263 369.6 255.8 355.8 250.5 332.8 C 249.2 327 249 311.9 249 218.2 C 249 114.5 249.1 109.9 251 100.8 C 257.7 68.8 277.2 43.7 306.7 29.4 C 311.7 27 316.3 25 316.9 25 C 317.5 25 320.1 24.3 322.7 23.4 C 330.3 20.7 337.4 20.1 354 20.5 C 366.2 20.8 370.8 21.3 375.9 22.9 Z " fill="rgb(232,232,232)"/><path d=" M 342 79.4 C 339.3 80.4 335.4 82.9 333.4 85 C 330 88.5 326.1 97.2 326 101.5 C 326 105.5 329.8 113.4 333.8 117.5 C 342.2 126.1 357.5 126.2 365.9 117.8 C 377.7 106 374.2 86.4 359 79.8 C 353 77.2 348.1 77.1 342 79.4 Z " fill="rgb(232,232,232)"/><path d=" M 236.8 464.3 C 234.6 466.1 234 467.4 234 470.6 C 234 474.5 234.7 475.3 290.8 531.3 C 334.2 574.6 348.2 588 350 588 C 351.8 588 365.8 574.6 409.2 531.3 C 465.8 474.8 466 474.5 466 470.5 C 466 467.1 465.5 466 463 464.2 C 461.4 463 459.3 462 458.3 462 C 457.4 462 433 485.6 404 514.5 C 375.1 543.4 350.8 567 350 567 C 349.2 567 324.9 543.4 296 514.5 C 262 480.6 242.7 462 241.4 462 C 240.4 462.1 238.3 463.1 236.8 464.3 Z " fill="rgb(232,232,232)"/><path d=" M 236.8 573.3 C 234.6 575.1 234 576.4 234 579.5 C 234 583.4 234.8 584.3 290.3 639.7 C 342.7 692.1 346.8 696 350 696 C 353.2 696 357.3 692.1 409.7 639.7 C 465.6 583.9 466 583.5 466 579.4 C 466 576.1 465.5 575 463 573.2 C 461.4 572 459.3 571 458.3 571 C 457.4 571 433.2 594.4 404 623.5 C 375.1 652.4 350.8 676 350 676 C 349.2 676 324.9 652.4 296 623.5 C 262.1 589.7 242.7 571 241.4 571 C 240.4 571.1 238.3 572.1 236.8 573.3 Z " fill="rgb(232,232,232)"/></g></svg>